<svg width="91" height="19" viewBox="0 0 91 19" fill="none" xmlns="http://www.w3.org/2000/svg">
<g clip-path="url(#clip0_72_3)">
<path d="M90.9999 18.2596C90.9173 18.4985 90.7318 18.5869 90.5034 18.6153C89.6705 18.71 88.8312 18.7326 87.9946 18.6827C87.7422 18.6671 87.491 18.6362 87.2422 18.5902C86.9147 18.534 86.8208 18.4279 86.7736 18.1025C86.7232 17.7565 86.6685 17.4111 86.6273 17.0641C86.6275 17.0319 86.6214 16.9999 86.6092 16.9701C86.597 16.9403 86.5791 16.9133 86.5565 16.8908C86.5338 16.8682 86.507 16.8506 86.4775 16.8389C86.448 16.8272 86.4165 16.8217 86.3849 16.8228C86.2779 16.8069 86.1687 16.8155 86.0653 16.8478C85.9619 16.8801 85.8668 16.9354 85.7868 17.0097C84.6614 18.075 83.3126 18.6399 81.7999 18.8206C79.9185 19.0454 78.0689 18.9152 76.2922 18.2054C74.1395 17.346 72.759 15.7383 72.0354 13.5205C71.723 12.5266 71.5399 11.4952 71.4909 10.4527C71.4061 9.19554 71.4817 7.93247 71.7158 6.6952C72.0318 5.08818 72.6516 3.63013 73.7925 2.43999C74.7205 1.47177 75.8493 0.852979 77.1173 0.486583C78.0761 0.217832 79.0652 0.0783245 80.0594 0.0716183C81.1371 0.0541923 82.1982 0.145258 83.2343 0.470619C84.1601 0.755032 85.0108 1.24954 85.7228 1.91709C85.8103 2.00495 85.916 2.07157 86.0322 2.11201C86.1484 2.15245 86.272 2.16568 86.3938 2.15071C86.4223 2.15251 86.4509 2.14852 86.4779 2.13899C86.5048 2.12946 86.5297 2.11456 86.551 2.09517C86.5723 2.07578 86.5896 2.05228 86.602 2.02602C86.6143 1.99975 86.6215 1.97125 86.623 1.94216C86.6708 1.57756 86.7241 1.21342 86.7691 0.848483C86.8107 0.510418 86.9013 0.367861 87.2302 0.336494C87.8826 0.27466 88.5378 0.233625 89.1928 0.22092C89.6128 0.212601 90.0338 0.267914 90.4541 0.299618C90.6998 0.317944 90.9134 0.393943 91.0001 0.663991L90.9999 18.2596ZM76.1931 9.42209C76.1979 10.4356 76.2793 11.3802 76.5581 12.2982C77.0284 13.8473 78.0013 14.8826 79.5563 15.2974C80.6348 15.578 81.7613 15.6073 82.8524 15.3831C84.4389 15.075 85.5467 14.1689 86.115 12.6114C86.3849 11.8291 86.536 11.0093 86.5629 10.1804C86.6239 9.0015 86.5629 7.83632 86.2247 6.70037C85.7379 5.06693 84.6957 4.02328 83.048 3.64002C82.0514 3.41172 81.02 3.391 80.0155 3.57909C78.3929 3.87139 77.2481 4.77238 76.6646 6.36793C76.2973 7.3729 76.2034 8.42015 76.1933 9.4222L76.1931 9.42209Z" fill="#F8F8F8"/>
<path d="M61.8314 -6.04941e-06C62.1654 0.0254022 62.4999 0.0491242 62.834 0.0763313C64.5452 0.21529 66.2455 0.4289 67.9155 0.852071C68.2372 0.933355 68.4309 1.10818 68.4402 1.47345C68.4597 2.24806 68.4828 3.02167 68.3127 3.78414C68.2466 4.0805 68.1343 4.17763 67.839 4.12637C67.3478 4.04059 66.8623 3.91939 66.3737 3.81877C64.9015 3.49894 63.4081 3.29113 61.9058 3.19705C60.943 3.13917 59.9771 3.16799 59.0193 3.28317C58.5571 3.32869 58.1074 3.46216 57.6933 3.67666C57.1094 3.99876 56.8472 4.50029 56.8681 5.17429C56.8656 5.45573 56.9442 5.73172 57.094 5.96802C57.2438 6.20433 57.4583 6.39056 57.7109 6.50361C58.2617 6.78344 58.8579 6.90588 59.4567 7.00953C60.9686 7.27272 62.4852 7.50882 63.9938 7.78999C65.0668 7.98989 66.1135 8.29512 67.0877 8.81622C68.5089 9.57622 69.2776 10.7779 69.4331 12.4009C69.5212 13.3278 69.4893 14.2411 69.1712 15.1244C68.7396 16.3219 67.9056 17.1497 66.8215 17.7379C65.7839 18.3013 64.6622 18.5914 63.5089 18.7715C62.1602 18.9702 60.7964 19.0411 59.435 18.9834C58.1946 18.9531 56.9577 18.8351 55.7333 18.63C54.6855 18.4452 53.6458 18.2106 52.6027 17.9977C52.5794 17.9921 52.5563 17.9852 52.5337 17.977C52.0252 17.8161 51.9664 17.7522 51.9469 17.2214C51.9059 16.4609 51.9446 15.6981 52.0622 14.9459C52.1269 14.5736 52.3011 14.4676 52.6682 14.5524C53.7466 14.8014 54.8213 15.0726 55.9064 15.2885C57.6928 15.6489 59.5153 15.7879 61.3343 15.7025C61.9604 15.6715 62.5843 15.6165 63.1863 15.4207C63.599 15.2867 63.9809 15.0991 64.2606 14.744C64.9554 13.8612 64.6596 12.4828 63.6657 11.9871C63.1235 11.7331 62.5485 11.5595 61.9581 11.4716C60.7132 11.2531 59.4638 11.0644 58.2203 10.839C56.9396 10.6068 55.6728 10.3141 54.5007 9.70573C53.5287 9.20116 52.7695 8.48816 52.3687 7.42877C52.0652 6.62728 52.0052 5.79095 52.0713 4.94573C52.1527 3.89882 52.5144 2.96602 53.2351 2.19624C53.8829 1.50448 54.6836 1.06354 55.5562 0.749426C56.5537 0.402877 57.5908 0.188599 58.6419 0.111858C59.0741 0.07487 59.5074 0.0545205 59.94 0.0251773C59.9683 0.0197622 59.9958 0.0110477 60.0221 -0.000793457L61.8314 -6.04941e-06Z" fill="#F8F8F8"/>
<path d="M10.334 1.11055e-05C10.5896 0.0636442 10.8531 0.105579 11.1 0.194283C11.8129 0.447419 12.4123 0.954667 12.788 1.62277C13.7714 3.31118 14.7538 5.00027 15.7352 6.69004C16.0146 7.17066 16.2983 7.64824 16.5725 8.13122C17.5786 9.90182 16.6892 12.1661 14.7684 12.6984C14.4768 12.7791 14.1625 12.7733 13.8583 12.8108C13.8141 12.8169 13.7692 12.8075 13.7309 12.7842C13.6926 12.761 13.663 12.7253 13.647 12.6828C12.9052 11.3981 12.1614 10.1142 11.4155 8.8313C10.9988 8.1129 10.5858 7.39225 10.1642 6.67711C9.70456 5.8914 8.99163 5.29311 8.14742 4.98459C7.30321 4.67606 6.38017 4.67648 5.53623 4.98577C5.48775 5.00319 5.43862 5.01826 5.35071 5.0476C5.5965 4.62263 5.8219 4.23308 6.04742 3.84363C6.46959 3.11429 6.8919 2.38517 7.31437 1.65627C7.79812 0.825218 8.47324 0.25533 9.4207 0.0583599C9.50795 0.0403717 9.59455 0.0195734 9.68147 -0.000213623L10.334 1.11055e-05Z" fill="url(#paint0_linear_72_3)"/>
<path d="M39.4922 9.50842V17.8633C39.4922 17.9189 39.4934 17.9742 39.4922 18.0294C39.4805 18.4308 39.3938 18.5612 39.0092 18.6064C37.8905 18.7556 36.7571 18.7497 35.64 18.589C35.3364 18.5407 35.2452 18.4343 35.1931 18.1252C35.138 17.7992 35.0803 17.4731 35.0316 17.1454C35.0082 16.9858 34.9198 16.9363 34.7725 16.926C34.6594 16.9152 34.5453 16.9296 34.4382 16.9682C34.3311 17.0069 34.2334 17.0688 34.1521 17.1498C33.1754 18.0402 31.9583 18.6096 30.6597 18.7835C29.1656 19.0076 27.678 18.9858 26.2169 18.5725C23.8813 17.9125 22.4836 16.3279 21.9174 13.9486C21.7308 13.1538 21.6372 12.3392 21.6386 11.522C21.6323 8.02388 21.6314 4.52581 21.636 1.02779C21.636 0.542785 21.7481 0.407087 22.2184 0.336933C23.3825 0.162144 24.5654 0.162144 25.7295 0.336933C25.8306 0.353406 25.9302 0.37872 26.027 0.412596C26.1114 0.438916 26.1856 0.4916 26.2391 0.563223C26.2926 0.634846 26.3227 0.721796 26.3252 0.811821C26.3327 0.891081 26.3299 0.971579 26.3299 1.0514C26.3299 4.30344 26.3255 7.5557 26.3333 10.8077C26.3247 11.5391 26.4181 12.268 26.6107 12.9726C26.9907 14.2958 27.8738 15.0227 29.1842 15.2324C30.0901 15.392 31.0191 15.3498 31.9075 15.1087C33.3358 14.7021 34.1675 13.7089 34.5484 12.2811C34.7234 11.5846 34.8072 10.8674 34.7975 10.1485C34.8027 7.09902 34.8034 4.04969 34.7996 1.00047C34.7996 0.545371 34.8929 0.423501 35.3305 0.344803C36.0502 0.221237 36.7812 0.180058 37.5099 0.222034C38.0134 0.24688 38.5171 0.300732 39.0166 0.373471C39.3678 0.424625 39.4583 0.555939 39.4904 0.914691C39.4964 0.982146 39.4936 1.0496 39.4936 1.11706L39.4922 9.50842Z" fill="#F8F8F8"/>
<path d="M43.546 9.44872V1.07737C43.546 1.01587 43.5447 0.954373 43.5469 0.892876C43.5589 0.566841 43.6571 0.430019 43.9715 0.373581C44.3201 0.305255 44.6725 0.259034 45.0267 0.235184C45.8927 0.171836 46.7629 0.205767 47.6216 0.336368C47.734 0.355281 47.8446 0.38398 47.9522 0.422149C48.0275 0.446855 48.0936 0.494484 48.1417 0.558648C48.1898 0.622812 48.2175 0.700443 48.2211 0.781125C48.2289 0.866569 48.2321 0.952687 48.2321 1.03847C48.2327 6.65025 48.2327 12.2621 48.2321 17.874C48.2321 17.9536 48.2292 18.0338 48.2216 18.1131C48.1985 18.3653 48.1013 18.5076 47.8567 18.5496C47.4781 18.6206 47.0954 18.6665 46.711 18.6868C45.8441 18.7184 44.9763 18.7303 44.1138 18.5933C43.6646 18.5217 43.545 18.3944 43.545 17.9308C43.5454 15.1037 43.5457 12.2763 43.546 9.44872Z" fill="#F8F8F8"/>
<path d="M17.7631 10.4182C17.8964 10.6627 18.0132 10.8754 18.1287 11.0889C18.6345 12.0237 19.1373 12.9598 19.6453 13.8932C20.8307 16.0707 19.3996 18.3742 17.297 18.6546C17.1774 18.6689 17.057 18.6755 16.9365 18.6744C15.2784 18.6812 13.6205 18.687 11.9629 18.6918C11.1548 18.6942 10.3469 18.6987 9.53914 18.6984C7.99302 18.6978 6.75119 17.6724 6.44833 16.1319C6.29046 15.3286 6.47136 14.5848 6.90168 13.9019C6.92523 13.8775 6.95341 13.8582 6.98451 13.8452C7.01562 13.8322 7.04899 13.8259 7.08258 13.8265C7.67272 13.8155 8.26322 13.8091 8.8541 13.8073C10.6086 13.8034 12.3637 13.8285 14.1179 13.7931C15.764 13.7594 17.2183 12.54 17.6461 10.9096C17.6856 10.7586 17.7187 10.6057 17.7631 10.4182Z" fill="url(#paint1_linear_72_3)"/>
<path d="M7.02145 18.6784C6.29433 18.6784 5.59001 18.6805 4.88592 18.6779C4.28935 18.6755 3.69267 18.6757 3.09621 18.6596C2.28603 18.6371 1.5566 18.3837 0.966199 17.7993C0.462286 17.3024 0.134148 16.649 0.0332074 15.9414C-0.0677331 15.2337 0.0642301 14.512 0.408412 13.8891C1.42318 12.0356 2.45282 10.1912 3.47641 8.34301C3.6865 7.96357 3.88569 7.57728 4.11187 7.20852C4.74633 6.17577 5.67517 5.65378 6.86423 5.69257C8.00867 5.72989 8.85555 6.30709 9.41796 7.32331C9.44126 7.36132 9.45268 7.40567 9.45072 7.45047C9.44875 7.49526 9.43348 7.53839 9.40694 7.57413C8.31626 9.53191 7.23418 11.4942 6.13756 13.4482C5.7264 14.1811 5.49548 14.9529 5.54958 15.7999C5.57942 16.3286 5.71344 16.8457 5.94362 17.3203C6.17381 17.7949 6.49542 18.2172 6.88924 18.5621C6.92813 18.5985 6.96912 18.6335 7.02145 18.6784Z" fill="url(#paint2_linear_72_3)"/>
</g>
<defs>
<linearGradient id="paint0_linear_72_3" x1="17.6078" y1="8.68689" x2="5.9973" y2="4.63002" gradientUnits="userSpaceOnUse">
<stop stop-color="#F8F8F8"/>
<stop offset="1" stop-color="#F8F8F8"/>
</linearGradient>
<linearGradient id="paint1_linear_72_3" x1="6.39197" y1="14.5583" x2="20.0742" y2="14.5583" gradientUnits="userSpaceOnUse">
<stop stop-color="#F8F8F8"/>
<stop offset="1" stop-color="#F8F8F8"/>
</linearGradient>
<linearGradient id="paint2_linear_72_3" x1="7.96717" y1="8.69093" x2="-1.42085" y2="17.4777" gradientUnits="userSpaceOnUse">
<stop stop-color="#F8F8F8"/>
<stop offset="1" stop-color="#F8F8F8"/>
</linearGradient>
<clipPath id="clip0_72_3">
<rect width="91" height="19" fill="white"/>
</clipPath>
</defs>
</svg>
